<svg width="35" height="40" viewBox="0 0 35 40" fill="none" xmlns="http://www.w3.org/2000/svg">
<g id="Group">
<path id="Vector" d="M10.6887 13.075L0 10L8.68297 5L10.6887 13.075Z" fill="#2F2561"/>
<path id="Vector_2" d="M34.7317 10V10.0162H34.7152L34.7317 10Z" fill="#2F2561"/>
<path id="Vector_3" d="M34.7319 20V30L26.7175 22.3083L34.7319 20Z" fill="#2F2561"/>
<path id="Vector_4" d="M10.6887 13.075L0 10L8.68297 5L10.6887 13.075Z" fill="#2F2561"/>
<path id="Vector_5" d="M26.0489 5L20.0402 10.7667L17.366 13.3333L14.6917 10.7667L8.68298 5L17.366 0L26.0489 5Z" fill="#2F2561"/>
<path id="Vector_6" d="M34.7319 20V30L26.7175 22.3083L34.7319 20Z" fill="#2F2561"/>
<path id="Vector_7" d="M34.7317 30V30.0163L34.7235 30.0081L34.7317 30Z" fill="#2F2561"/>
<path id="Vector_8" d="M34.7319 20.0001L26.7174 22.3084L24.3106 20.0001L22.7061 18.4667L23.1573 16.6667L26.7174 17.6917L34.7319 20.0001Z" fill="#6650D3"/>
<path id="Vector_9" d="M34.7152 10.0167H34.7319V20L26.7175 17.6917L23.1573 16.6667L24.0432 13.0917L26.0489 5L34.7319 10L34.7152 10.0167Z" fill="#2F2561"/>
<path id="Vector_10" d="M17.3659 39.9999L8.68297 34.9999L0 29.9999L8.00606 22.3166L10.4212 19.9999L12.0258 18.4666L12.4019 19.9999L13.0286 22.4999L13.3629 23.8666L13.8894 25.9999L14.6917 29.2332L17.3659 39.9999Z" fill="#9F8FF0"/>
<path id="Vector_11" d="M12.0258 18.4667L10.4212 20L8.00606 22.3167L0 30V10L10.6887 13.075L11.5745 16.675L12.0258 18.4667Z" fill="#6650D3"/>
<path id="Vector_12" d="M34.7319 30L34.7236 30.0083L26.0489 35L17.366 40L14.6917 29.2333L13.8894 26L13.3629 23.8667L13.0287 22.5L12.4019 20L12.0258 18.4667L11.5745 16.675L10.6887 13.075L8.68298 5L14.6917 10.7667L17.366 13.3333L18.7114 14.625L19.848 15.7167L21.7116 17.5L22.7061 18.4667L24.3107 20L26.7175 22.3083L34.7319 30Z" fill="#B9E63C"/>
<path id="Vector_13" d="M26.0489 5L24.0433 13.0917L23.1574 16.6667L22.7061 18.4667L21.7116 17.5L19.848 15.7167L18.7115 14.625L17.366 13.3333L20.0402 10.7667L26.0489 5Z" fill="#9F8FF0"/>
</g>
</svg>
