<svg width="119" height="40" viewBox="0 0 119 40" fill="none" xmlns="http://www.w3.org/2000/svg">
<g id="Group">
<g id="Group_2">
<path id="Vector" d="M1.99996 39.9999H0.433289V30.1832H1.88329V31.9165L1.99996 32.1082V39.9999ZM4.47495 37.6165C3.81662 37.6165 3.29163 37.4832 2.89163 37.2165C2.49163 36.9499 2.20829 36.6582 2.04162 36.3332H1.64163L1.71662 34.4749H1.99162C1.99162 34.8749 2.06662 35.2082 2.21662 35.4749C2.36662 35.7415 2.59162 35.9332 2.89995 36.0665C3.19995 36.1999 3.56662 36.2665 3.99995 36.2665C4.34162 36.2665 4.64163 36.2249 4.88329 36.1332C5.13329 36.0415 5.34162 35.9082 5.49996 35.7165C5.65829 35.5249 5.77496 35.2749 5.84996 34.9582C5.92496 34.6415 5.95829 34.2665 5.95829 33.8332C5.95829 33.3749 5.92496 32.9915 5.84996 32.6832C5.77496 32.3749 5.65829 32.1249 5.50829 31.9249C5.34996 31.7249 5.14995 31.5915 4.89162 31.4999C4.64162 31.4082 4.34162 31.3665 3.99995 31.3665C3.56662 31.3665 3.19995 31.4332 2.89995 31.5665C2.59995 31.6999 2.36662 31.8999 2.21662 32.1582C2.06662 32.4249 1.99162 32.7582 1.99162 33.1582H1.71662L1.64163 31.3832H1.93329C2.10829 30.9665 2.39995 30.6332 2.80829 30.3915C3.21662 30.1499 3.73329 30.0332 4.36662 30.0332C5.39162 30.0332 6.17496 30.3749 6.71662 31.0582C7.25829 31.7415 7.53329 32.6665 7.53329 33.8332C7.53329 34.9749 7.26662 35.8915 6.74162 36.5832C6.21662 37.2665 5.45829 37.6165 4.47495 37.6165Z" fill="white"/>
<path id="Vector_2" d="M10.8833 37.6165C10.2166 37.6165 9.66665 37.4499 9.22498 37.1165C8.78332 36.7832 8.56665 36.2999 8.56665 35.6665C8.56665 35.2665 8.65832 34.9249 8.84165 34.6499C9.02499 34.3749 9.29998 34.1499 9.66665 33.9749C10.0333 33.8082 10.4667 33.6832 10.975 33.5999L13.675 33.2165V34.3415L11.2083 34.6749C10.7916 34.7415 10.4917 34.8332 10.325 34.9499C10.1583 35.0665 10.075 35.2665 10.075 35.5332C10.075 35.8165 10.175 36.0249 10.375 36.1582C10.575 36.2915 10.9083 36.3582 11.3667 36.3582C11.7167 36.3582 12.0583 36.2999 12.3916 36.1915C12.725 36.0749 12.9917 35.8832 13.2083 35.6082C13.4167 35.3332 13.525 34.9499 13.525 34.4665L13.7333 36.3249L13.5167 36.3082C13.3833 36.5332 13.1917 36.7415 12.9417 36.9415C12.7 37.1415 12.4 37.2999 12.0583 37.4165C11.725 37.5499 11.3333 37.6165 10.8833 37.6165ZM15.0416 37.4665H13.575V36.0332L13.5333 35.6415V32.8415C13.5333 32.2915 13.4 31.9249 13.1416 31.7249C12.8833 31.5332 12.4666 31.4332 11.8916 31.4332C11.3166 31.4332 10.9 31.5332 10.65 31.7332C10.4 31.9332 10.275 32.2749 10.275 32.7665V32.9832H8.74998V32.8332C8.74998 32.2915 8.88331 31.8165 9.14998 31.3915C9.41665 30.9665 9.79165 30.6332 10.275 30.3915C10.7583 30.1499 11.325 30.0332 11.9667 30.0332C12.6417 30.0332 13.2083 30.1582 13.6583 30.4165C14.1167 30.6665 14.4583 31.0165 14.6833 31.4665C14.9166 31.9082 15.025 32.4332 15.025 33.0415V37.4665H15.0416Z" fill="white"/>
<path id="Vector_3" d="M18.1416 37.4666H16.5583V30.1332H18.0083V32.1749L18.1416 32.2499V37.4666ZM18.1416 32.7166H17.7583V31.2916H18.0833C18.2333 30.9582 18.475 30.6666 18.8083 30.4082C19.1416 30.1582 19.575 30.0249 20.1083 30.0249C20.625 30.0249 21.0416 30.1332 21.35 30.3582C21.6583 30.5832 21.8833 30.8832 22.025 31.2499C22.1666 31.6249 22.2416 32.0332 22.2416 32.4999V32.9832H20.6583V32.6916C20.6583 32.2082 20.575 31.8666 20.4083 31.6666C20.2416 31.4582 19.925 31.3582 19.4583 31.3582C18.9916 31.3582 18.65 31.4582 18.45 31.6666C18.2416 31.8832 18.1416 32.2249 18.1416 32.7166Z" fill="white"/>
<path id="Vector_4" d="M25.0833 37.6165C24.4166 37.6165 23.8666 37.4499 23.4249 37.1165C22.9833 36.7832 22.7666 36.2999 22.7666 35.6665C22.7666 35.2665 22.8583 34.9249 23.0416 34.6499C23.2249 34.3749 23.4999 34.1499 23.8666 33.9749C24.2333 33.8082 24.6666 33.6832 25.1749 33.5999L27.8749 33.2165V34.3415L25.4083 34.6749C24.9916 34.7415 24.6916 34.8332 24.5249 34.9499C24.3583 35.0665 24.2749 35.2665 24.2749 35.5332C24.2749 35.8165 24.3749 36.0249 24.5749 36.1582C24.7749 36.2915 25.1083 36.3582 25.5666 36.3582C25.9166 36.3582 26.2583 36.2999 26.5916 36.1915C26.9249 36.0749 27.1916 35.8832 27.4083 35.6082C27.6166 35.3332 27.7249 34.9499 27.7249 34.4665L27.9333 36.3249L27.7166 36.3082C27.5833 36.5332 27.3916 36.7415 27.1416 36.9415C26.8999 37.1415 26.5999 37.2999 26.2583 37.4165C25.9333 37.5499 25.5333 37.6165 25.0833 37.6165ZM29.2499 37.4665H27.7833V36.0332L27.7416 35.6415V32.8415C27.7416 32.2915 27.6083 31.9249 27.3499 31.7249C27.0916 31.5332 26.6749 31.4332 26.0999 31.4332C25.5249 31.4332 25.1083 31.5332 24.8583 31.7332C24.6083 31.9332 24.4833 32.2749 24.4833 32.7665V32.9832H22.9583V32.8332C22.9583 32.2915 23.0916 31.8165 23.3583 31.3915C23.6249 30.9665 23.9999 30.6332 24.4833 30.3915C24.9666 30.1499 25.5333 30.0332 26.1749 30.0332C26.8499 30.0332 27.4166 30.1582 27.8666 30.4165C28.3249 30.6665 28.6666 31.0165 28.8916 31.4665C29.1249 31.9082 29.2333 32.4332 29.2333 33.0415V37.4665H29.2499Z" fill="white"/>
<path id="Vector_5" d="M35.0999 37.4666H33.5166V30.1332H34.9666V32.1749L35.0999 32.2499V37.4666ZM35.0999 32.7166H34.7166V31.2916H35.0416C35.1916 30.9582 35.4333 30.6666 35.7666 30.4082C36.0999 30.1582 36.5333 30.0249 37.0666 30.0249C37.5833 30.0249 37.9999 30.1332 38.3083 30.3582C38.6166 30.5832 38.8416 30.8832 38.9833 31.2499C39.1249 31.6249 39.1999 32.0332 39.1999 32.4999V32.9832H37.6166V32.6916C37.6166 32.2082 37.5333 31.8666 37.3666 31.6666C37.1999 31.4582 36.8833 31.3582 36.4166 31.3582C35.9499 31.3582 35.6083 31.4582 35.4083 31.6666C35.1999 31.8832 35.0999 32.2249 35.0999 32.7166Z" fill="white"/>
<path id="Vector_6" d="M43.4583 37.6165C42.6583 37.6165 42 37.4582 41.475 37.1332C40.9583 36.8082 40.5666 36.3665 40.3083 35.7999C40.05 35.2332 39.9166 34.5749 39.9166 33.8165C39.9166 33.0665 40.0583 32.4082 40.35 31.8332C40.6416 31.2665 41.05 30.8249 41.575 30.5082C42.1 30.1915 42.725 30.0332 43.45 30.0332C44.1083 30.0332 44.6833 30.1582 45.1833 30.4082C45.6833 30.6582 46.075 31.0165 46.3583 31.4832C46.6416 31.9499 46.7833 32.5249 46.7833 33.1999C46.7833 33.3832 46.775 33.5665 46.7583 33.7499C46.7416 33.9332 46.725 34.0832 46.7083 34.1999H40.6666V33.1332H45.4166L45.2583 33.2832C45.3083 32.8332 45.2666 32.4665 45.1333 32.1915C45 31.9165 44.7916 31.7082 44.4916 31.5665C44.2 31.4332 43.8333 31.3582 43.4083 31.3582C42.6333 31.3582 42.1083 31.5582 41.825 31.9415C41.5416 32.3332 41.4 32.8665 41.4 33.5415V33.9665C41.4 34.4582 41.4583 34.8665 41.575 35.2082C41.6916 35.5415 41.9083 35.7999 42.2166 35.9665C42.525 36.1332 42.9416 36.2165 43.4666 36.2165C44.0833 36.2165 44.5166 36.1165 44.775 35.9249C45.025 35.7332 45.1583 35.4665 45.1583 35.1499V35.0332H46.725V35.1665C46.725 35.6665 46.5916 36.0999 46.3166 36.4665C46.0416 36.8332 45.6666 37.1165 45.1833 37.3249C44.7 37.5082 44.125 37.6165 43.4583 37.6165Z" fill="white"/>
<path id="Vector_7" d="M51.3916 37.6249C50.625 37.6249 49.9833 37.4665 49.4583 37.1415C48.9333 36.8165 48.525 36.3749 48.25 35.7999C47.975 35.2249 47.8333 34.5665 47.8333 33.8165C47.8333 33.0749 47.975 32.4165 48.2666 31.8415C48.5583 31.2665 48.9666 30.8249 49.5166 30.5082C50.0583 30.1915 50.7083 30.0332 51.4583 30.0332C52.1 30.0332 52.6666 30.1582 53.1583 30.4082C53.65 30.6582 54.025 30.9999 54.2916 31.4415C54.5583 31.8832 54.6917 32.3915 54.6917 32.9665V33.0999H53.125V33.0165C53.125 32.4749 52.9833 32.0832 52.7 31.8332C52.4167 31.5832 51.9583 31.4582 51.3333 31.4582C50.6417 31.4582 50.1416 31.6582 49.8416 32.0499C49.5416 32.4499 49.3917 33.0415 49.3917 33.8332C49.3917 34.6249 49.5416 35.2165 49.8416 35.6082C50.1416 35.9999 50.6333 36.1915 51.3333 36.1915C51.9583 36.1915 52.4167 36.0665 52.7 35.8249C52.9833 35.5832 53.125 35.1915 53.125 34.6499V34.5665H54.6917V34.6999C54.6917 35.2665 54.5583 35.7749 54.2833 36.2165C54.0083 36.6582 53.625 37.0082 53.1333 37.2582C52.6333 37.4999 52.05 37.6249 51.3916 37.6249Z" fill="white"/>
<path id="Vector_8" d="M57.4749 37.4666H55.8916V27.6416H57.4749V37.4666Z" fill="white"/>
<path id="Vector_9" d="M61.7416 37.6167C61.1166 37.6167 60.6 37.4834 60.1916 37.225C59.7833 36.9667 59.4833 36.6167 59.2916 36.1667C59.1 35.725 59.0083 35.2251 59.0083 34.6751V30.175H60.575V34.3834C60.575 35.05 60.7083 35.525 60.9833 35.8084C61.2583 36.1 61.7083 36.2417 62.35 36.2417C62.75 36.2417 63.0916 36.175 63.375 36.0417C63.6583 35.9084 63.875 35.7 64.025 35.4084C64.175 35.1167 64.25 34.7417 64.25 34.275H64.6416V36.0084H64.2916C64.1833 36.2834 64.0166 36.5417 63.8 36.7834C63.5833 37.025 63.3 37.225 62.9666 37.375C62.625 37.5417 62.2166 37.6167 61.7416 37.6167ZM65.8166 37.4667H64.35V35.2667L64.25 35.1917V30.175H65.8166V37.4667Z" fill="white"/>
<path id="Vector_10" d="M71.6333 31.5H66.65V30.1834H71.6333V31.5ZM70.3333 37.4667C69.5333 37.4667 68.9166 37.3 68.4916 36.9584C68.0666 36.625 67.85 36.0417 67.85 35.2167V30.3334L68.2166 28.3667H69.4166V35.1417C69.4166 35.525 69.5166 35.7667 69.7083 35.8667C69.9 35.9667 70.25 36.0167 70.75 36.0167H71.6333V37.325C71.4833 37.3584 71.3 37.3834 71.0583 37.4084C70.825 37.45 70.5833 37.4667 70.3333 37.4667Z" fill="white"/>
<path id="Vector_11" d="M74.6833 37.6165C74.0166 37.6165 73.4666 37.4499 73.025 37.1165C72.5833 36.7832 72.3666 36.2999 72.3666 35.6665C72.3666 35.2665 72.4583 34.9249 72.6416 34.6499C72.825 34.3749 73.1 34.1499 73.4666 33.9749C73.8333 33.8082 74.2666 33.6832 74.775 33.5999L77.475 33.2165V34.3415L75.0083 34.6749C74.5916 34.7415 74.2916 34.8332 74.125 34.9499C73.9583 35.0665 73.875 35.2665 73.875 35.5332C73.875 35.8165 73.975 36.0249 74.175 36.1582C74.375 36.2915 74.7083 36.3582 75.1666 36.3582C75.5166 36.3582 75.8583 36.2999 76.1916 36.1915C76.525 36.0749 76.7916 35.8832 77.0083 35.6082C77.2166 35.3332 77.325 34.9499 77.325 34.4665L77.5333 36.3249L77.3166 36.3082C77.1833 36.5332 76.9916 36.7415 76.7416 36.9415C76.5 37.1415 76.2 37.2999 75.8583 37.4165C75.525 37.5499 75.1333 37.6165 74.6833 37.6165ZM78.85 37.4665H77.3833V36.0332L77.3416 35.6415V32.8415C77.3416 32.2915 77.2083 31.9249 76.95 31.7249C76.6916 31.5332 76.275 31.4332 75.7 31.4332C75.125 31.4332 74.7083 31.5332 74.4583 31.7332C74.2083 31.9332 74.0833 32.2749 74.0833 32.7665V32.9832H72.5583V32.8332C72.5583 32.2915 72.6916 31.8165 72.9583 31.3915C73.225 30.9665 73.6 30.6332 74.0833 30.3915C74.5666 30.1499 75.1333 30.0332 75.775 30.0332C76.45 30.0332 77.0166 30.1582 77.4666 30.4165C77.925 30.6665 78.2666 31.0165 78.4916 31.4665C78.725 31.9082 78.8333 32.4332 78.8333 33.0415V37.4665H78.85Z" fill="white"/>
<path id="Vector_12" d="M83.2416 37.6166C82.2083 37.6166 81.4083 37.2749 80.8583 36.5833C80.3083 35.8916 80.0333 34.9749 80.0333 33.8166C80.0333 32.6666 80.2999 31.7416 80.8416 31.0583C81.3749 30.3749 82.1499 30.0333 83.1583 30.0333C83.7999 30.0333 84.3249 30.1583 84.7166 30.4249C85.1166 30.6833 85.3916 30.9833 85.5416 31.3083H85.9333L85.8583 33.1666H85.5833C85.5833 32.7583 85.5083 32.4166 85.3499 32.1583C85.1916 31.8916 84.9666 31.6999 84.6749 31.5749C84.3833 31.4499 84.0166 31.3833 83.5916 31.3833C83.2499 31.3833 82.9499 31.4249 82.6999 31.5166C82.4416 31.6083 82.2416 31.7416 82.0749 31.9249C81.9166 32.1083 81.7999 32.3583 81.7249 32.6749C81.6499 32.9916 81.6166 33.3666 81.6166 33.8166C81.6166 34.2666 81.6499 34.6499 81.7249 34.9583C81.7999 35.2749 81.9166 35.5249 82.0749 35.7166C82.2333 35.9083 82.4416 36.0499 82.6999 36.1333C82.9499 36.2249 83.2499 36.2666 83.5916 36.2666C84.0249 36.2666 84.3833 36.1999 84.6749 36.0749C84.9666 35.9499 85.1916 35.7499 85.3499 35.4833C85.5083 35.2166 85.5833 34.8833 85.5833 34.4749H85.8583L85.9333 36.2499H85.6499C85.4833 36.6833 85.1999 37.0166 84.7916 37.2583C84.3833 37.4916 83.8749 37.6166 83.2416 37.6166ZM87.1583 37.4666H85.7249V35.7333L85.5916 35.5416V27.6416H87.1583V37.4666Z" fill="white"/>
<path id="Vector_13" d="M92.0166 37.6165C91.275 37.6165 90.6333 37.4582 90.0916 37.1415C89.55 36.8248 89.125 36.3832 88.8333 35.8082C88.5333 35.2332 88.3833 34.5748 88.3833 33.8248C88.3833 33.0748 88.5333 32.4165 88.8333 31.8415C89.1333 31.2748 89.55 30.8332 90.0916 30.5165C90.6333 30.1998 91.275 30.0415 92.0166 30.0415C92.7583 30.0415 93.4 30.1998 93.9333 30.5165C94.4666 30.8332 94.875 31.2748 95.175 31.8415C95.4666 32.4082 95.6166 33.0665 95.6166 33.8248C95.6166 34.5748 95.4666 35.2415 95.175 35.8082C94.8833 36.3832 94.4666 36.8248 93.9333 37.1415C93.3916 37.4582 92.7583 37.6165 92.0166 37.6165ZM92.0166 36.2082C92.7916 36.2082 93.325 36.0165 93.625 35.6248C93.925 35.2415 94.075 34.6332 94.075 33.8165C94.075 32.9998 93.925 32.3915 93.625 32.0082C93.325 31.6248 92.7916 31.4248 92.0166 31.4248C91.2416 31.4248 90.7083 31.6165 90.4 32.0082C90.1 32.3915 89.9416 32.9998 89.9416 33.8165C89.9416 34.6332 90.0916 35.2415 90.4 35.6248C90.7 36.0165 91.2416 36.2082 92.0166 36.2082Z" fill="white"/>
<path id="Vector_14" d="M98.3583 37.4666H96.775V30.1332H98.225V32.1749L98.3583 32.2499V37.4666ZM98.3583 32.7166H97.975V31.2916H98.3C98.45 30.9582 98.6916 30.6666 99.025 30.4082C99.3583 30.1582 99.7916 30.0249 100.325 30.0249C100.842 30.0249 101.258 30.1332 101.567 30.3582C101.875 30.5832 102.1 30.8832 102.242 31.2499C102.383 31.6166 102.458 32.0332 102.458 32.4999V32.9832H100.875V32.6916C100.875 32.2082 100.792 31.8666 100.625 31.6666C100.458 31.4582 100.142 31.3582 99.675 31.3582C99.2083 31.3582 98.8666 31.4582 98.6666 31.6666C98.4583 31.8832 98.3583 32.2249 98.3583 32.7166Z" fill="white"/>
<path id="Vector_15" d="M106.717 37.6165C105.917 37.6165 105.258 37.4582 104.733 37.1332C104.217 36.8082 103.825 36.3665 103.567 35.7999C103.308 35.2332 103.175 34.5749 103.175 33.8165C103.175 33.0665 103.317 32.4082 103.608 31.8332C103.9 31.2665 104.308 30.8249 104.833 30.5082C105.358 30.1915 105.983 30.0332 106.708 30.0332C107.367 30.0332 107.942 30.1582 108.442 30.4082C108.942 30.6582 109.333 31.0165 109.617 31.4832C109.9 31.9499 110.042 32.5249 110.042 33.1999C110.042 33.3832 110.033 33.5665 110.017 33.7499C110 33.9332 109.983 34.0832 109.967 34.1999H103.925V33.1332H108.675L108.517 33.2832C108.567 32.8332 108.525 32.4665 108.392 32.1915C108.258 31.9165 108.05 31.7082 107.75 31.5665C107.458 31.4332 107.092 31.3582 106.667 31.3582C105.892 31.3582 105.367 31.5582 105.083 31.9415C104.8 32.3332 104.658 32.8665 104.658 33.5415V33.9665C104.658 34.4582 104.717 34.8665 104.833 35.2082C104.95 35.5415 105.167 35.7999 105.475 35.9665C105.783 36.1332 106.2 36.2165 106.725 36.2165C107.342 36.2165 107.775 36.1165 108.033 35.9249C108.283 35.7332 108.417 35.4665 108.417 35.1499V35.0332H109.983V35.1665C109.983 35.6665 109.85 36.0999 109.575 36.4665C109.3 36.8332 108.925 37.1165 108.442 37.3249C107.958 37.5082 107.383 37.6165 106.717 37.6165Z" fill="white"/>
<path id="Vector_16" d="M114.442 37.6166C113.375 37.6166 112.567 37.4082 112.025 36.9832C111.475 36.5582 111.208 35.9082 111.208 35.0249V34.9749H112.75V35.2416C112.75 35.4999 112.8 35.7082 112.9 35.8749C113 36.0416 113.175 36.1582 113.417 36.2166C113.667 36.2832 114.017 36.3082 114.483 36.3082C114.875 36.3082 115.167 36.2832 115.367 36.2166C115.567 36.1582 115.7 36.0749 115.767 35.9582C115.833 35.8499 115.867 35.6999 115.867 35.5082C115.867 35.2082 115.767 34.9999 115.567 34.8832C115.367 34.7749 115 34.6666 114.458 34.5666L113.317 34.3499C112.875 34.2749 112.5 34.1499 112.192 33.9916C111.883 33.8332 111.633 33.5999 111.458 33.3082C111.283 33.0166 111.192 32.6499 111.192 32.2249C111.192 31.5666 111.45 31.0416 111.975 30.6332C112.5 30.2249 113.233 30.0249 114.183 30.0249C114.767 30.0249 115.283 30.1166 115.733 30.2999C116.175 30.4832 116.533 30.7666 116.8 31.1332C117.067 31.5082 117.2 31.9666 117.2 32.5249V32.6582H115.675V32.4832C115.675 32.2499 115.633 32.0499 115.558 31.8749C115.483 31.6999 115.333 31.5666 115.117 31.4749C114.9 31.3749 114.575 31.3249 114.133 31.3249C113.558 31.3249 113.175 31.3999 112.983 31.5416C112.792 31.6832 112.7 31.9082 112.7 32.1999C112.7 32.4749 112.783 32.6666 112.958 32.7749C113.133 32.8832 113.475 32.9999 113.992 33.1082L115.225 33.3416C115.692 33.4332 116.083 33.5582 116.408 33.7416C116.725 33.9166 116.967 34.1499 117.133 34.4332C117.3 34.7166 117.383 35.0582 117.383 35.4582C117.383 36.1332 117.125 36.6582 116.608 37.0332C116.083 37.4249 115.358 37.6166 114.442 37.6166Z" fill="white"/>
</g>
<g id="Group_3">
<g id="Group_4">
<path id="Vector_17" d="M11.5667 8.6166H0.424988V5.6666H11.5583V8.6166H11.5667ZM8.64998 21.9499C6.85832 21.9499 5.49165 21.5749 4.54165 20.8166C3.59165 20.0666 3.11665 18.7666 3.11665 16.9333V6.03327L3.93332 1.6416H6.61665V16.7749C6.61665 17.6249 6.83332 18.1666 7.27498 18.3999C7.70832 18.6333 8.48332 18.7416 9.59998 18.7416H11.5667V21.6583C11.2417 21.7249 10.8167 21.7916 10.2917 21.8583C9.76665 21.9166 9.21665 21.9499 8.64998 21.9499Z" fill="white"/>
<path id="Vector_18" d="M18.375 22.2751C16.8917 22.2751 15.6583 21.9001 14.675 21.1584C13.6917 20.4168 13.2 19.3334 13.2 17.9168C13.2 17.0251 13.4083 16.2668 13.825 15.6418C14.2417 15.0168 14.8583 14.5168 15.675 14.1334C16.4917 13.7501 17.475 13.4751 18.6083 13.3001L24.6333 12.4501V14.9751L19.1333 15.7251C18.1917 15.8751 17.5417 16.0834 17.1667 16.3501C16.7917 16.6084 16.6083 17.0501 16.6083 17.6584C16.6083 18.2918 16.8333 18.7584 17.2833 19.0501C17.7333 19.3418 18.4667 19.4918 19.4917 19.4918C20.275 19.4918 21.0417 19.3668 21.7833 19.1168C22.525 18.8668 23.1333 18.4334 23.6 17.8251C24.0667 17.2168 24.3 16.3584 24.3 15.2668L24.7583 19.4251L24.2667 19.3918C23.9583 19.8918 23.5333 20.3668 22.9917 20.8001C22.4417 21.2334 21.7917 21.5918 21.025 21.8668C20.2667 22.1418 19.3833 22.2751 18.375 22.2751ZM27.6833 21.9501H24.4083V18.7418L24.3083 17.8584V11.6001C24.3083 10.3751 24.0167 9.5501 23.4417 9.10843C22.8667 8.6751 21.9333 8.4501 20.6417 8.4501C19.35 8.4501 18.4333 8.6751 17.875 9.1251C17.3167 9.5751 17.0417 10.3418 17.0417 11.4334V11.9251H13.6333V11.6001C13.6333 10.4001 13.9334 9.3251 14.5334 8.3751C15.1334 7.4251 15.975 6.68343 17.0583 6.1501C18.1417 5.61676 19.4 5.3501 20.8417 5.3501C22.35 5.3501 23.6083 5.63343 24.625 6.2001C25.6417 6.76676 26.4083 7.5501 26.9167 8.54176C27.4333 9.53343 27.6833 10.7084 27.6833 12.0668V21.9501Z" fill="white"/>
<path id="Vector_19" d="M34.5917 21.95H31.05V0H34.5917V21.95Z" fill="white"/>
<path id="Vector_20" d="M45.1666 22.275C43.375 22.275 41.9 21.9166 40.7416 21.1916C39.5833 20.475 38.7166 19.475 38.1416 18.2083C37.5666 16.9416 37.275 15.4666 37.275 13.7833C37.275 12.1 37.6 10.625 38.2416 9.35828C38.8833 8.09162 39.8 7.09995 40.975 6.39162C42.1583 5.68328 43.55 5.32495 45.1666 5.32495C46.6333 5.32495 47.9166 5.59995 49.0333 6.15828C50.15 6.71662 51.0166 7.51662 51.65 8.56662C52.2833 9.61662 52.6 10.8916 52.6 12.4C52.6 12.8166 52.5833 13.225 52.55 13.625C52.5166 14.025 52.475 14.3583 52.4333 14.625H38.9416V12.2333H49.5583L49.2 12.5583C49.3083 11.5583 49.2166 10.7416 48.925 10.1166C48.6333 9.49162 48.1583 9.03328 47.5 8.72495C46.8416 8.41662 46.0333 8.26662 45.075 8.26662C43.35 8.26662 42.1666 8.69995 41.5333 9.57495C40.9 10.45 40.5833 11.6416 40.5833 13.1416V14.0916C40.5833 15.1833 40.7166 16.1083 40.975 16.8583C41.2333 17.6083 41.7083 18.175 42.4 18.5416C43.0916 18.9166 44.025 19.1 45.2 19.1C46.575 19.1 47.55 18.8833 48.1166 18.4416C48.6833 18.0083 48.9666 17.425 48.9666 16.7083V16.45H52.475V16.7416C52.475 17.8583 52.1666 18.825 51.5583 19.6416C50.95 20.4583 50.1 21.1 49.0166 21.5583C47.9416 22.05 46.6583 22.275 45.1666 22.275Z" fill="white"/>
<path id="Vector_21" d="M58.9583 21.9499H55.4166V5.66655H58.6583V10.5499L58.95 10.7166V21.9499H58.9583ZM70.5916 21.9499H67.0833V12.5166C67.0833 11.0499 66.8083 10.0082 66.25 9.37489C65.6916 8.74155 64.6583 8.42489 63.1583 8.42489C62.2166 8.42489 61.4416 8.55822 60.8166 8.81655C60.1916 9.07489 59.7333 9.50822 59.425 10.1082C59.1166 10.7082 58.9666 11.5249 58.9666 12.5499H58.3416L58.05 8.71655H58.8333C59.075 8.12489 59.4333 7.58322 59.9166 7.07489C60.4 6.57489 61.0166 6.15822 61.7666 5.83322C62.5166 5.50822 63.4083 5.34155 64.4333 5.34155C65.875 5.34155 67.0416 5.61655 67.9416 6.15822C68.8333 6.70822 69.5 7.45822 69.9416 8.41655C70.375 9.37489 70.6 10.4832 70.6 11.7249V21.9499H70.5916Z" fill="white"/>
<path id="Vector_22" d="M83.4917 8.6166H72.3583V5.6666H83.4917V8.6166ZM80.575 21.9499C78.7833 21.9499 77.4167 21.5749 76.4667 20.8166C75.5167 20.0666 75.0417 18.7666 75.0417 16.9333V6.03327L75.8583 1.6416H78.5417V16.7749C78.5417 17.6249 78.7583 18.1666 79.2 18.3999C79.6333 18.6333 80.4083 18.7416 81.525 18.7416H83.4917V21.6583C83.1667 21.7249 82.7417 21.7916 82.2167 21.8583C81.6917 21.9166 81.15 21.9499 80.575 21.9499Z" fill="white"/>
<path id="Vector_23" d="M89.0917 3.6083H85.5833L85.55 0.00830078H89.0917V3.6083ZM89.125 21.95H85.5833V5.57497H89.125V21.95Z" fill="white"/>
<path id="Vector_24" d="M100.792 8.61667H90.7333V5.66667H100.792V8.61667ZM96.625 21.95H93.1167V5.8C93.1167 4.53333 93.35 3.46667 93.8167 2.60833C94.2833 1.74167 95 1.1 95.9583 0.658333C96.9167 0.225 98.0917 0 99.4667 0C99.6833 0 99.9 0 100.125 0C100.35 0 100.558 0 100.783 0V2.78333H98.8167C98.0333 2.78333 97.45 2.94167 97.0833 3.25833C96.7083 3.575 96.525 4.08333 96.525 4.78333V6.225L96.625 7.075V21.95Z" fill="white"/>
<path id="Vector_25" d="M105.508 27.5334C105.475 27.5334 105.442 27.5334 105.408 27.5334C105 27.525 104.583 27.4917 104.183 27.4417C104.083 27.425 103.092 27.3084 103.092 27.225V24.3417H105.317C105.992 24.3417 106.5 24.25 106.825 24.0667C107.15 23.8834 107.458 23.4917 107.742 22.9L108.758 20.6084L108.467 21.7584L101.425 5.67505H105.292L108.6 13.5667L110.075 17.1084H110.367L111.675 13.5667L114.658 5.67505H118.592L110.858 23.8584C110.467 24.8417 110.017 25.5917 109.517 26.1167C109.017 26.6417 108.442 27.0084 107.8 27.2167C107.05 27.4417 106.275 27.5417 105.508 27.5334Z" fill="white"/>
</g>
</g>
</g>
</svg>
