<svg width="144" height="34" viewBox="0 0 144 34" fill="none" xmlns="http://www.w3.org/2000/svg">
<g id="Group">
<g id="Group_2">
<path id="Vector" d="M14.0646 10.7667H0.542847V7.19998H14.0646V10.7667ZM10.5212 26.9083C8.34833 26.9083 6.68528 26.45 5.53201 25.5416C4.37873 24.6333 3.8021 23.0667 3.8021 20.8417V7.63332L4.79659 2.31665H8.05583V20.6416C8.05583 21.675 8.32326 22.325 8.84975 22.6083C9.37625 22.8833 10.3206 23.025 11.6744 23.025H14.0646V26.5583C13.6634 26.6333 13.1536 26.7167 12.5101 26.8C11.875 26.8667 11.2148 26.9083 10.5212 26.9083Z" fill="#2F2561"/>
<path id="Vector_2" d="M22.3381 27.2999C20.533 27.2999 19.0371 26.8499 17.842 25.9499C16.6469 25.0499 16.0536 23.7415 16.0536 22.0249C16.0536 20.9415 16.3043 20.0249 16.8057 19.2665C17.3071 18.5165 18.0593 17.9082 19.0538 17.4415C20.0483 16.9832 21.235 16.6415 22.6139 16.4332L29.9347 15.3999V18.4499L23.2574 19.3582C22.1208 19.5415 21.3185 19.7915 20.8672 20.1082C20.416 20.4249 20.1903 20.9582 20.1903 21.6915C20.1903 22.4582 20.4661 23.0165 21.0093 23.3749C21.5525 23.7332 22.4467 23.9082 23.6919 23.9082C24.6446 23.9082 25.5723 23.7582 26.4748 23.4499C27.3774 23.1499 28.1128 22.6249 28.6811 21.8832C29.2494 21.1415 29.5335 20.1082 29.5335 18.7915L30.0934 23.8249L29.5001 23.7832C29.1324 24.3915 28.6142 24.9582 27.9457 25.4915C27.2855 26.0165 26.4832 26.4499 25.5556 26.7832C24.6279 27.1332 23.5582 27.2999 22.3381 27.2999ZM33.6285 26.9082H29.6505V23.0249L29.5335 21.9499V14.3749C29.5335 12.8915 29.1825 11.8915 28.4805 11.3582C27.7785 10.8332 26.642 10.5665 25.0792 10.5665C23.5164 10.5665 22.3966 10.8415 21.7197 11.3832C21.0427 11.9249 20.7085 12.8582 20.7085 14.1749V14.7665H16.5717V14.3665C16.5717 12.9165 16.9394 11.6082 17.6665 10.4582C18.3936 9.3082 19.4131 8.4082 20.7252 7.7582C22.0372 7.1082 23.5666 6.7832 25.3216 6.7832C27.1517 6.7832 28.6811 7.12487 29.9179 7.81654C31.1548 8.5082 32.0824 9.44987 32.7008 10.6499C33.3193 11.8499 33.6368 13.2749 33.6368 14.9165V26.9082H33.6285Z" fill="#2F2561"/>
<path id="Vector_3" d="M42.0189 26.9083H37.7234V0.333252H42.0189V26.9083Z" fill="#2F2561"/>
<path id="Vector_4" d="M54.8637 27.2998C52.6909 27.2998 50.9024 26.8665 49.4984 25.9915C48.0945 25.1165 47.0415 23.9165 46.3395 22.3831C45.6375 20.8498 45.2865 19.0665 45.2865 17.0331C45.2865 14.9998 45.6793 13.2165 46.4565 11.6831C47.242 10.1498 48.3452 8.9498 49.7742 8.09147C51.2033 7.23314 52.8998 6.7998 54.8637 6.7998C56.6437 6.7998 58.2065 7.13314 59.5603 7.80814C60.9142 8.48314 61.9755 9.45814 62.7444 10.7248C63.5132 11.9915 63.8977 13.5415 63.8977 15.3665C63.8977 15.8665 63.8809 16.3665 63.8391 16.8498C63.7974 17.3415 63.7556 17.7415 63.6971 18.0581H47.3089V15.1665H60.1955L59.7609 15.5665C59.8946 14.3498 59.7776 13.3665 59.4266 12.6081C59.0673 11.8581 58.4906 11.2915 57.6967 10.9248C56.9028 10.5581 55.9167 10.3665 54.755 10.3665C52.6574 10.3665 51.2284 10.8915 50.4595 11.9498C49.6907 13.0081 49.3062 14.4498 49.3062 16.2748V17.4248C49.3062 18.7498 49.465 19.8665 49.7826 20.7748C50.1002 21.6831 50.6768 22.3665 51.5125 22.8165C52.3482 23.2665 53.4848 23.4915 54.9138 23.4915C56.5852 23.4915 57.7636 23.2248 58.4572 22.6998C59.1425 22.1748 59.4935 21.4665 59.4935 20.5998V20.2831H63.7472V20.6415C63.7472 21.9915 63.3795 23.1581 62.6357 24.1498C61.892 25.1415 60.864 25.9165 59.552 26.4665C58.2316 27.0248 56.6688 27.2998 54.8637 27.2998Z" fill="#2F2561"/>
<path id="Vector_5" d="M71.6112 26.9081H67.3157V7.1998H71.2519V13.1081L71.6112 13.3081V26.9081ZM85.7263 26.9081H81.4725V15.4831C81.4725 13.7081 81.1382 12.4415 80.4613 11.6748C79.7844 10.9081 78.5308 10.5248 76.7006 10.5248C75.5641 10.5248 74.6114 10.6831 73.8592 10.9998C73.1071 11.3165 72.5388 11.8415 72.1711 12.5665C71.8034 13.2915 71.6112 14.2748 71.6112 15.5248H70.8591L70.4997 10.8831H71.4524C71.7449 10.1665 72.1795 9.50814 72.7645 8.8998C73.3495 8.29147 74.0932 7.79147 75.0125 7.39147C75.9234 6.99147 77.0098 6.7998 78.255 6.7998C80.0017 6.7998 81.4224 7.13314 82.5088 7.79147C83.5952 8.4498 84.4058 9.36647 84.9323 10.5248C85.4588 11.6915 85.7263 13.0248 85.7263 14.5331V26.9081Z" fill="#2F2561"/>
<path id="Vector_6" d="M101.396 10.7667H87.874V7.19998H101.396V10.7667ZM97.8607 26.9083C95.6879 26.9083 94.0248 26.45 92.8715 25.5416C91.7183 24.6333 91.1416 23.0667 91.1416 20.8417V7.63332L92.1361 2.31665H95.3954V20.6416C95.3954 21.675 95.6628 22.325 96.1893 22.6083C96.7158 22.8833 97.6601 23.025 99.014 23.025H101.404V26.5583C101.003 26.6333 100.493 26.7167 99.8497 26.8C99.2145 26.8667 98.546 26.9083 97.8607 26.9083Z" fill="#2F2561"/>
<path id="Vector_7" d="M108.198 4.69989H103.945L103.903 0.341553H108.198V4.69989ZM108.24 26.9082H103.945V7.07489H108.24V26.9082Z" fill="#2F2561"/>
<path id="Vector_8" d="M122.397 10.7666H110.187V7.19989H122.397V10.7666ZM117.349 26.9082H113.096V7.35822C113.096 5.82489 113.38 4.53322 113.948 3.49155C114.516 2.44989 115.385 1.65822 116.555 1.13322C117.725 0.608219 119.138 0.341553 120.809 0.341553C121.077 0.341553 121.336 0.341553 121.603 0.341553C121.871 0.341553 122.13 0.341553 122.397 0.341553V3.71655H120.007C119.054 3.71655 118.352 3.90822 117.901 4.29155C117.45 4.67489 117.224 5.29155 117.224 6.13322V7.87489L117.341 8.90822V26.9082H117.349Z" fill="#2F2561"/>
<path id="Vector_9" d="M128.122 33.6667C128.08 33.6667 128.038 33.6667 127.996 33.6667C127.495 33.6583 127.002 33.6167 126.509 33.55C126.392 33.5333 125.18 33.3833 125.18 33.2833V29.7917H127.888C128.707 29.7917 129.317 29.6833 129.718 29.4583C130.119 29.2333 130.487 28.7667 130.829 28.05L132.066 25.275L131.707 26.6667L123.157 7.19165H127.854L131.874 16.75L133.662 21.0333H134.022L135.609 16.75L139.228 7.19165H144L134.615 29.2C134.139 30.3917 133.595 31.3 132.985 31.9333C132.375 32.5667 131.682 33.0083 130.896 33.2583C129.994 33.5583 129.058 33.675 128.122 33.6667Z" fill="#2F2561"/>
</g>
</g>
</svg>
